<svg width="129.585938" height="25.066406" viewBox="0 0 129.586 25.0664" fill="none" xmlns="http://www.w3.org/2000/svg" xmlns:xlink="http://www.w3.org/1999/xlink">
	<desc>
			Created with Pixso.
	</desc>
	<defs/>
	<path id="LoftHouse" d="M40.35 6.08L40.35 8.92L42.67 8.92L42.71 18.7Q42.71 20.46 43.06 21.65Q43.38 22.68 44.05 23.39Q45.44 24.86 48.37 24.89L49.64 24.89L48.97 21.9L48.48 21.9Q48.09 21.9 47.7 21.83Q46.91 21.72 46.42 21.27Q45.66 20.57 45.66 19.05L45.66 8.96L47.91 8.96L47.91 6.08L45.66 6.08L45.66 0L42.67 0L42.67 6.08L40.35 6.08ZM30.72 7.41L30.72 10.3L33.04 10.3L33.04 24.89L36 24.89L36 10.3L38.39 10.3L38.39 7.41L36 7.45L36 5.37Q36.02 4 36.71 3.39Q37.2 2.96 38.03 2.91L38.7 2.91L39.37 0.07L38.07 0.07Q36.83 0.08 35.84 0.59Q35 1.02 34.34 1.79Q33.54 2.79 33.23 3.92Q33.04 4.62 33.04 5.37L33.04 7.41L30.72 7.41ZM0 0.28L0 24.89L13.21 24.89L13.21 21.86L3.05 21.86L3.05 0.28L0 0.28ZM51.22 0.28L51.22 24.89L54.28 24.89L54.28 13.99L57.44 13.99L57.44 11L54.28 11L54.28 0.28L51.22 0.28ZM59.2 11L59.2 13.99L62.33 13.99L62.33 24.89L65.42 24.89L65.42 0.28L62.33 0.28L62.33 11L59.2 11ZM100.84 8.6Q100.19 9.74 100.19 11.25Q100.19 11.95 100.33 12.58Q100.45 13.02 100.65 13.41Q101.44 14.94 103.57 15.78Q104.3 16.03 105.96 16.41Q107.5 16.8 108.21 17.01Q110.71 17.77 110.96 18.99Q110.98 19.12 110.98 19.26Q110.98 19.75 110.83 20.19Q110.63 20.72 110.21 21.16Q109.72 21.66 109.13 21.94Q108.4 22.28 107.5 22.28L107.5 25.06Q109.22 25.06 110.61 24.39Q110.87 24.26 111.12 24.11Q112.29 23.42 112.95 22.39Q113.83 21.04 113.83 19.12Q113.83 18.02 113.41 17.12Q113.36 17.01 113.3 16.91Q112.99 16.33 112.55 15.89Q111.55 14.89 109.89 14.55Q106.06 13.64 104.73 13.07Q103.22 12.47 103.01 11.56Q102.97 11.41 102.97 11.25Q102.97 11.07 103 10.89Q103.08 10.34 103.43 9.84Q103.85 9.19 104.46 8.85Q105.09 8.5 105.92 8.5L105.92 5.76Q104.52 5.76 103.11 6.5Q101.56 7.32 100.84 8.6ZM107.47 5.76L107.47 8.54Q108 8.54 108.63 8.78Q109.92 9.26 110.42 10.17Q110.74 10.74 110.74 11.49L113.52 11.03Q113.52 10.78 113.48 10.52Q113.33 9.22 112.35 8.01Q111.51 6.99 110.43 6.43Q109.12 5.76 107.47 5.76ZM15.18 11L15.18 19.68Q15.18 20.88 16.06 22.21Q16.93 23.5 18.14 24.17Q19.48 24.92 21.23 24.92L21.23 22.07Q20.6 22.07 20.04 21.86Q19.65 21.71 19.3 21.44Q18.48 20.82 18.22 20.02Q18.1 19.64 18.1 19.23L18.1 11.49Q18.1 10.96 18.35 10.44Q18.69 9.7 19.26 9.28Q20.04 8.71 21.23 8.71L21.23 5.87Q19.68 5.87 18.42 6.47Q17.46 6.94 16.66 7.76Q15.26 9.26 15.19 10.82Q15.18 10.91 15.18 11ZM22.74 22.07L22.74 24.92Q24.22 24.9 25.41 24.3Q26.35 23.84 27.1 23.02Q28.45 21.54 28.57 19.97Q28.58 19.83 28.58 19.68L28.58 11Q28.58 9.8 27.7 8.5Q26.86 7.24 25.68 6.59Q24.4 5.87 22.71 5.87L22.71 8.71Q23.42 8.71 24.02 8.97Q24.25 9.07 24.46 9.21Q25.13 9.66 25.43 10.29Q25.69 10.83 25.69 11.49L25.69 19.3Q25.69 19.82 25.41 20.39Q25.01 21.24 24.33 21.66Q23.67 22.07 22.74 22.07ZM68.16 11L68.16 19.68Q68.16 20.88 69.04 22.21Q69.91 23.5 71.12 24.17Q72.46 24.92 74.21 24.92L74.21 22.07Q73.58 22.07 73.03 21.86Q72.63 21.71 72.28 21.44Q71.46 20.82 71.2 20.02Q71.08 19.64 71.08 19.23L71.08 11.49Q71.08 10.96 71.33 10.44Q71.67 9.7 72.24 9.28Q73.02 8.71 74.21 8.71L74.21 5.87Q72.66 5.87 71.4 6.47Q70.44 6.94 69.64 7.76Q68.24 9.26 68.17 10.82Q68.16 10.91 68.16 11ZM75.72 22.07L75.72 24.92Q77.2 24.9 78.39 24.3Q79.33 23.84 80.08 23.02Q81.44 21.54 81.55 19.97Q81.56 19.83 81.56 19.68L81.56 11Q81.56 9.8 80.68 8.5Q79.84 7.24 78.67 6.59Q77.38 5.87 75.69 5.87L75.69 8.71Q76.4 8.71 77 8.97Q77.23 9.07 77.44 9.21Q78.11 9.66 78.41 10.29Q78.67 10.83 78.67 11.49L78.67 19.3Q78.67 19.82 78.39 20.39Q77.99 21.24 77.31 21.66Q76.65 22.07 75.72 22.07ZM115.91 10.96L115.91 19.68Q115.91 20.91 116.89 22.28Q117.79 23.57 119.02 24.22Q120.29 24.89 121.92 24.89L121.92 22.14Q121.65 22.14 121.39 22.1Q120.66 21.98 119.98 21.51Q118.98 20.76 118.87 19.89Q118.86 19.79 118.86 19.68L118.86 16.52L129.55 16.52L129.55 10.93Q129.54 10.54 129.46 10.17Q129.18 8.78 127.93 7.59Q126.78 6.55 125.44 6.13Q124.56 5.87 123.6 5.87L123.6 8.61Q123.77 8.61 123.94 8.62Q124.54 8.68 125.12 8.96Q126.08 9.4 126.47 10.15Q126.73 10.65 126.73 11.28L126.73 13.67L118.86 13.67L118.86 11.28Q118.86 10.75 119.25 10.12Q119.76 9.32 120.49 8.95Q121.11 8.64 121.88 8.64L121.88 5.87Q120.6 5.88 119.5 6.35Q118.38 6.82 117.45 7.76Q115.94 9.34 115.91 10.96L115.91 10.96ZM84.23 5.9L84.23 19.82Q84.23 21.09 85.14 22.42Q85.95 23.59 87.06 24.24Q88.46 25.06 90.35 25.06L90.35 22.11Q89.76 22.11 89.22 21.93Q88.84 21.8 88.48 21.58Q87.6 20.99 87.33 20.19Q87.22 19.85 87.22 19.47L87.22 5.9L84.23 5.9ZM91.89 22.11L91.89 25.06Q93.4 25.04 94.63 24.45Q95.64 23.96 96.46 23.09Q97.94 21.52 97.97 19.91Q97.98 19.87 97.98 19.82L97.98 5.9L94.99 5.9L94.99 19.47Q94.99 20.03 94.67 20.6Q94.3 21.23 93.76 21.6Q93 22.11 91.89 22.11ZM102.79 19.37L100.02 19.89Q100.02 20.16 100.05 20.42Q100.18 21.55 100.89 22.6Q101.48 23.46 102.28 24.02Q103.77 25.06 105.99 25.06L105.99 22.28Q105.25 22.25 104.44 21.86Q103.34 21.25 102.98 20.34Q102.79 19.89 102.79 19.37ZM123.6 22.11L123.6 24.89Q124.5 24.89 125.33 24.66Q126.04 24.47 126.7 24.11Q127.9 23.45 128.65 22.45Q129.29 21.58 129.58 20.46L127.09 19.54Q126.98 19.89 126.77 20.28Q126.24 21.2 125.45 21.65Q124.66 22.11 123.6 22.11Z" fill="#FFFFFF" fill-opacity="1.000000" fill-rule="evenodd"/>
</svg>
